# xmcd
#
# Track frame offsets:
#	150
#	9827
#	24378
#	37565
#	52394
#	66085
#	79732
#	92296
#	104968
#	118686
#	131323
#	145426
#	158692
#	171933
#	185740
#	198700
#	213002
#	225175
#	237810
#	252053
#
# Disc length: 3551 seconds
#
# Revision: 0
# Processed by: cddbd v1.5.2PL0 Copyright (c) Steve Scherf et al.
# Submitted via: EasyCDDAExtractor 16.0.6.1
#
DISCID=020ddd14
DTITLE=Τσαουσάκης Πρόδρομος - Τραγούδια 45 στροφές-Τσαουσάκης Πρόδρομος 1
DYEAR=1996
DGENRE=Λαϊκή
TTITLE0=Τσαουσάκης Πρόδρομος-Καλάκη Ρούλα - Νά 'χεις ανοιχτή την πόρτα [1965, 
TTITLE0=Π.Τσαουσάκη-Ι.Μπουρνέλη]
TTITLE1=Τσαουσάκης Πρόδρομος-Ζάννου Νίτσα - Μη μού ξαναφύγεις πια [1970, Β. Τσ
TTITLE1=ιτσάνη]
TTITLE2=Τσαουσάκης Πρόδρομος-Δερβενιώτης Θεόδωρος - Στου Θωμά το ταβερνάκι [19
TTITLE2=66, Θ. Δερβενιώτη-Κ. Βίρβου]
TTITLE3=Τσαουσάκης Πρόδρομος-Παπαδοπούλου Πίτσα - Παρηγοριά ζητούσα [1970, Δ. 
TTITLE3=Γκόγκου Μπαγιαντέρα]
TTITLE4=Τσαουσάκης Πρόδρομος - Δραπετσώνα [1967, Π. Τσαουσάκη]
TTITLE5=Τσαουσάκης Πρόδρομος-Καλάκη Ρούλα - Είμαι ένας βασανισμένος πατέρας [1
TTITLE5=965, Μ. Μπακάλη]
TTITLE6=Τσαουσάκης Πρόδρομος-Κανακάρης Θ.-Καρανικόλα Β. - Μού 'δωσαν πληροφορί
TTITLE6=ες [1967, Σ. Βαρτάνη]
TTITLE7=Τσαουσάκης Πρόδρομος-Διαμάντη Λίτσα - Τι θες και πας στις μάγισσες [19
TTITLE7=65, Π. Τσαουσάκη-Λ. Μπουρνέλη]
TTITLE8=Τσαουσάκης Πρόδρομος - Κούνια που σε κούναγε [1964, Γ. Μανισαλή-Κ. Ψυχ
TTITLE8=ογιού]
TTITLE9=Τσαουσάκης Πρόδρομος - Αφήστε με να ζήσω [1966, Ν. Μεϊμάρη-Γ. Ατραΐδη]
TTITLE10=Τσαουσάκης Πρόδρομος-Καλάκη Ρούλα - Τα πάντα είναι μάταια 1964, Μ. Μπ
TTITLE10=ακάλη-Η. Παπασιδέρη]
TTITLE11=Τσαουσάκης Πρόδρομος-Γρίλλη Μαρία - Όλοι εδώ είμαστε ξένοι [1965, Π. 
TTITLE11=Τσαουσάκη]
TTITLE12=Τσαουσάκης Πρόδρομος-Καλάκη Ρούλα - Της καρδιάς μου το καμάρι [1965, 
TTITLE12=Μ. Μπακάλη]
TTITLE13=Τσαουσάκης Πρόδρομος - Απ' το ρόδο βγαίνει αγκάθι [1968, Θ. Δερβενιώτ
TTITLE13=η-Κ. Βίρβου]
TTITLE14=Τσαουσάκης Πρόδρομος - Με πολεμάς μπαμπέσικα [1965, Ε. Μωραΐτη]
TTITLE15=Τσαουσάκης Πρόδρομος - Μαριγούλα [1968, Π. Τσαουσάκη-Λ. Μπουρνέλη]
TTITLE16=Τσαουσάκης Πρόδρομος-Διαμάντη Λίτσα - Πέντε φίλοι απ' τον Πειραία [19
TTITLE16=66, Π. Τσαουσάκη-Χ. Μίγκου]
TTITLE17=Τσαουσάκης Πρόδρομος-Διαμάντη Λίτσα - Δεν σ' αλλάζω με καμμιά [1966, 
TTITLE17=Π. Τσαουσάκη-Χ. Μίγκου]
TTITLE18=Τσαουσάκης Πρόδρομος-Διαμάντη Λίτσα - Σε όλα μέσα είσαι [1967, Π. Τσα
TTITLE18=ουσάκη-Χ. Μίγκου]
TTITLE19=Τσαουσάκης Πρόδρομος-Γρίλλη Μαρία - Ο Πρόδρομος [1965, Θ. Δερβενιώτη-
TTITLE19=Κ. Βίρβου]
EXTD=
EXTT0=
EXTT1=
EXTT2=
EXTT3=
EXTT4=
EXTT5=
EXTT6=
EXTT7=
EXTT8=
EXTT9=
EXTT10=
EXTT11=
EXTT12=
EXTT13=
EXTT14=
EXTT15=
EXTT16=
EXTT17=
EXTT18=
EXTT19=
PLAYORDER=
